<svg xmlns="http://www.w3.org/2000/svg" width="375" height="365" fill="none" viewBox="0 0 375 365">
  <path fill="url(#paint0_linear)" fill-opacity=".4" fill-rule="evenodd" d="M268 214c59.094 0 107-47.906 107-107S327.094 0 268 0 161 47.906 161 107s47.906 107 107 107zm-125 78.5c0 40.041-32.012 72.5-71.5 72.5S0 332.541 0 292.5 32.012 220 71.5 220s71.5 32.459 71.5 72.5zm71.321 34.189c2.121 18.38-10.837 34.973-28.942 37.063-18.105 2.089-34.502-11.117-36.623-29.496-2.121-18.38 10.837-34.973 28.942-37.063 18.105-2.089 34.502 11.117 36.623 29.496zm34.445 36.794c10.973-1.266 18.816-11.411 17.518-22.658-1.298-11.247-11.246-19.338-22.218-18.072-10.973 1.267-18.816 11.411-17.518 22.658 1.298 11.247 11.245 19.338 22.218 18.072zm54.771-13.871c.855 7.407-4.234 14.079-11.367 14.902-7.132.823-13.607-4.514-14.462-11.921-.854-7.407 4.235-14.078 11.367-14.901 7.132-.823 13.607 4.514 14.462 11.92z" clip-rule="evenodd"/>
  <defs>
    <linearGradient id="paint0_linear" x1="-82" x2="358.5" y1="297" y2="48.5" gradientUnits="userSpaceOnUse">
      <stop stop-color="#062224" stop-opacity=".79"/>
      <stop offset=".276" stop-color="#062224" stop-opacity=".736"/>
      <stop offset=".51" stop-color="#062224" stop-opacity=".69"/>
      <stop offset=".818" stop-color="#062224" stop-opacity=".56"/>
      <stop offset="1" stop-color="#062224" stop-opacity=".46"/>
    </linearGradient>
  </defs>
</svg>
