<svg xmlns="http://www.w3.org/2000/svg" width="15" height="14" fill="none" viewBox="0 0 15 14">
  <rect width="15" height="14" fill="#9E6548" rx="1"/>
  <g clip-path="url(#clip0)">
    <path fill="#fff" d="M6.173.822l2.042.81c.222.089.367.307.345.517l-.244 2.212c-.021.194-.18.334-.39.34l-1.533.06C6.28 6.311 6.76 7.971 7.77 9.4l1.448-.348a.552.552 0 01.554.212l1.488 1.976c.14.19.131.43-.023.569l-1.42 1.283c-.148.134-.39.142-.587.015-4.46-2.878-6.08-8.313-3.608-12.143.108-.168.336-.226.55-.14z"/>
  </g>
  <defs>
    <clipPath id="clip0">
      <path fill="#fff" d="M0 0h10.611v9.1H0z" transform="scale(-1 1) rotate(-32.836 2.681 28.453)"/>
    </clipPath>
  </defs>
</svg>
