<svg xmlns="http://www.w3.org/2000/svg" width="91" height="93" fill="none" viewBox="0 0 91 93">
  <ellipse cx="45.5" cy="46.314" fill="#062224" rx="45.5" ry="46.314"/>
  <path fill="url(#paint0_linear)" fill-rule="evenodd" d="M79.141 46.48l5.227 6.18c1.426 1.688 1.247 4.249-.4 5.72l-4.97 4.442a3.87 3.87 0 01-5.565-.389l-3.89-4.601-16.435 19.436a3.87 3.87 0 01-5.566.39L26.91 59.217l-8.73 7.804a3.87 3.87 0 01-5.566-.39L8.95 62.3l-3.664-4.333c-1.427-1.687-1.248-4.248.4-5.72l6.71-5.998-6.488-5.798c-1.647-1.472-1.826-4.033-.4-5.72l3.665-4.333 3.664-4.334a3.87 3.87 0 015.565-.389l8.508 7.604 20.41-18.24a3.87 3.87 0 015.565.39l16.657 19.7 4.114-4.865a3.87 3.87 0 015.565-.39l4.97 4.442c1.647 1.472 1.826 4.033.4 5.72l-5.45 6.445zm-19.198 0l-5.276 6.24a3.87 3.87 0 01-5.566.39l-7.677-6.862 7.454-6.661a3.87 3.87 0 015.566.389l5.5 6.504z" clip-rule="evenodd"/>
  <defs>
    <linearGradient id="paint0_linear" x1="5.99" x2="90.842" y1="55.535" y2="55.535" gradientUnits="userSpaceOnUse">
      <stop stop-color="#73331F" stop-opacity=".85"/>
      <stop offset="1" stop-color="#C88231" stop-opacity=".67"/>
    </linearGradient>
  </defs>
</svg>
